<svg width="2764" height="1283" xmlns="http://www.w3.org/2000/svg" xmlns:xlink="http://www.w3.org/1999/xlink" xml:space="preserve" overflow="hidden"><g transform="translate(-279 -183)"><g><rect x="306" y="568" width="872" height="872" stroke="#000000" stroke-width="13.75" stroke-linecap="butt" stroke-linejoin="round" stroke-miterlimit="10" stroke-opacity="1" fill="#FFFFFF" fill-opacity="0"/><rect x="609" y="344" width="872" height="872" stroke="#000000" stroke-width="13.75" stroke-linecap="butt" stroke-linejoin="round" stroke-miterlimit="10" stroke-opacity="1" fill="none"/><path d="M0 0 302.191 224.339" stroke="#000000" stroke-width="13.75" stroke-linecap="butt" stroke-linejoin="round" stroke-miterlimit="10" stroke-opacity="1" fill="none" fill-rule="evenodd" transform="matrix(1 0 0 -1 306 568.339)"/><path d="M0 0 302.191 224.339" stroke="#000000" stroke-width="13.75" stroke-linecap="butt" stroke-linejoin="round" stroke-miterlimit="10" stroke-opacity="1" fill="none" fill-rule="evenodd" transform="matrix(1 0 0 -1 1178 568.339)"/><path d="M0 0 302.191 224.339" stroke="#000000" stroke-width="13.75" stroke-linecap="butt" stroke-linejoin="round" stroke-miterlimit="10" stroke-opacity="1" fill="none" fill-rule="evenodd" transform="matrix(1 0 0 -1 1178 1443.34)"/><path d="M0 0 302.191 224.339" stroke="#000000" stroke-width="13.75" stroke-linecap="butt" stroke-linejoin="round" stroke-miterlimit="10" stroke-opacity="1" fill="none" fill-rule="evenodd" transform="matrix(1 0 0 -1 306 1440.34)"/><path d="M586 348.5C586 335.521 596.298 325 609 325 621.703 325 632 335.521 632 348.5 632 361.479 621.703 372 609 372 596.298 372 586 361.479 586 348.5Z" fill="#000000" fill-rule="evenodd" fill-opacity="1"/><path d="M1458 348.5C1458 335.521 1468.3 325 1481 325 1493.7 325 1504 335.521 1504 348.5 1504 361.479 1493.7 372 1481 372 1468.3 372 1458 361.479 1458 348.5Z" fill="#000000" fill-rule="evenodd" fill-opacity="1"/><path d="M586 1211C586 1198.3 596.298 1188 609 1188 621.703 1188 632 1198.3 632 1211 632 1223.7 621.703 1234 609 1234 596.298 1234 586 1223.7 586 1211Z" fill="#000000" fill-rule="evenodd" fill-opacity="1"/><path d="M1458 1211C1458 1198.3 1468.3 1188 1481 1188 1493.7 1188 1504 1198.3 1504 1211 1504 1223.7 1493.7 1234 1481 1234 1468.3 1234 1458 1223.7 1458 1211Z" fill="#000000" fill-rule="evenodd" fill-opacity="1"/><path d="M283 573C283 560.297 293.297 550 306 550 318.703 550 329 560.297 329 573 329 585.703 318.703 596 306 596 293.297 596 283 585.703 283 573Z" fill="#000000" fill-rule="evenodd" fill-opacity="1"/><path d="M1155 573C1155 560.297 1165.3 550 1178 550 1190.7 550 1201 560.297 1201 573 1201 585.703 1190.7 596 1178 596 1165.3 596 1155 585.703 1155 573Z" fill="#000000" fill-rule="evenodd" fill-opacity="1"/><path d="M283 1435C283 1422.3 293.297 1412 306 1412 318.703 1412 329 1422.3 329 1435 329 1447.7 318.703 1458 306 1458 293.297 1458 283 1447.7 283 1435Z" fill="#000000" fill-rule="evenodd" fill-opacity="1"/><path d="M1155 1435C1155 1422.3 1165.3 1412 1178 1412 1190.7 1412 1201 1422.3 1201 1435 1201 1447.7 1190.7 1458 1178 1458 1165.3 1458 1155 1447.7 1155 1435Z" fill="#000000" fill-rule="evenodd" fill-opacity="1"/><text fill="#000000" fill-opacity="1" font-family="Cambria Math,Cambria Math_MSFontService,sans-serif" font-style="normal" font-variant="normal" font-weight="400" font-stretch="normal" font-size="83" text-anchor="start" direction="ltr" writing-mode="lr-tb" unicode-bidi="normal" text-decoration="none" transform="matrix(1 0 0 1 489.371 1112)">{</text><text fill="#000000" fill-opacity="1" font-family="Cambria Math,Cambria Math_MSFontService,sans-serif" font-style="normal" font-variant="normal" font-weight="400" font-stretch="normal" font-size="83" text-anchor="start" direction="ltr" writing-mode="lr-tb" unicode-bidi="normal" text-decoration="none" transform="matrix(1 0 0 1 521.455 1112)">2</text><text fill="#000000" fill-opacity="1" font-family="Cambria Math,Cambria Math_MSFontService,sans-serif" font-style="normal" font-variant="normal" font-weight="400" font-stretch="normal" font-size="83" text-anchor="start" direction="ltr" writing-mode="lr-tb" unicode-bidi="normal" text-decoration="none" transform="matrix(1 0 0 1 567.288 1112)">}</text><text fill="#000000" fill-opacity="1" font-family="Cambria Math,Cambria Math_MSFontService,sans-serif" font-style="normal" font-variant="normal" font-weight="400" font-stretch="normal" font-size="78" text-anchor="start" direction="ltr" writing-mode="lr-tb" unicode-bidi="normal" text-decoration="none" transform="matrix(1 0 0 1 690.284 1298)">{</text><text fill="#000000" fill-opacity="1" font-family="Cambria Math,Cambria Math_MSFontService,sans-serif" font-style="normal" font-variant="normal" font-weight="400" font-stretch="normal" font-size="78" text-anchor="start" direction="ltr" writing-mode="lr-tb" unicode-bidi="normal" text-decoration="none" transform="matrix(1 0 0 1 720.649 1298)">1</text><text fill="#000000" fill-opacity="1" font-family="Cambria Math,Cambria Math_MSFontService,sans-serif" font-style="normal" font-variant="normal" font-weight="400" font-stretch="normal" font-size="78" text-anchor="start" direction="ltr" writing-mode="lr-tb" unicode-bidi="normal" text-decoration="none" transform="matrix(1 0 0 1 763.618 1298)">}</text><text fill="#000000" fill-opacity="1" font-family="Cambria Math,Cambria Math_MSFontService,sans-serif" font-style="normal" font-variant="normal" font-weight="400" font-stretch="normal" font-size="78" text-anchor="start" direction="ltr" writing-mode="lr-tb" unicode-bidi="normal" text-decoration="none" transform="matrix(1 0 0 1 412.709 1262)">{</text><text fill="#000000" fill-opacity="1" font-family="Cambria Math,Cambria Math_MSFontService,sans-serif" font-style="normal" font-variant="normal" font-weight="400" font-stretch="normal" font-size="78" text-anchor="start" direction="ltr" writing-mode="lr-tb" unicode-bidi="normal" text-decoration="none" transform="matrix(1 0 0 1 443.074 1262)">3</text><text fill="#000000" fill-opacity="1" font-family="Cambria Math,Cambria Math_MSFontService,sans-serif" font-style="normal" font-variant="normal" font-weight="400" font-stretch="normal" font-size="78" text-anchor="start" direction="ltr" writing-mode="lr-tb" unicode-bidi="normal" text-decoration="none" transform="matrix(1 0 0 1 486.042 1262)">}</text><text fill="#000000" fill-opacity="1" font-family="Cambria Math,Cambria Math_MSFontService,sans-serif" font-style="normal" font-variant="normal" font-weight="400" font-stretch="normal" font-size="83" text-anchor="start" direction="ltr" writing-mode="lr-tb" unicode-bidi="normal" text-decoration="none" transform="matrix(1 0 0 1 1384.95 269)">𝜈</text><text fill="#000000" fill-opacity="1" font-family="Cambria Math,Cambria Math_MSFontService,sans-serif" font-style="normal" font-variant="normal" font-weight="400" font-stretch="normal" font-size="83" text-anchor="start" direction="ltr" writing-mode="lr-tb" unicode-bidi="normal" text-decoration="none" transform="matrix(1 0 0 1 1429.18 269)">(</text><path d="M1606.79 206.728 1607.84 206.728C1614.19 206.836 1618.94 208.288 1622.09 211.085 1625.24 213.881 1626.81 218.089 1626.81 223.709 1626.81 225.952 1626.49 228.505 1625.86 231.369 1625.22 234.233 1624.91 236.151 1624.91 237.124 1624.91 238.988 1625.55 240.508 1626.83 241.683 1628.11 242.858 1630.05 243.486 1632.65 243.567L1632.65 246.891C1630.05 246.972 1628.11 247.6 1626.83 248.775 1625.55 249.951 1624.91 251.47 1624.91 253.335 1624.91 254.307 1625.22 256.225 1625.86 259.089 1626.49 261.953 1626.81 264.507 1626.81 266.749 1626.81 272.558 1625.24 276.861 1622.09 279.657 1618.94 282.453 1614.19 283.906 1607.84 284.014L1606.79 284.014 1606.79 280.934 1607.4 280.934C1611.32 280.934 1614.38 279.914 1616.6 277.874 1618.81 275.834 1619.92 272.369 1619.92 267.479 1619.92 265.587 1619.65 263.25 1619.11 260.467 1618.57 257.684 1618.3 255.699 1618.3 254.51 1618.3 252.213 1618.97 250.329 1620.33 248.856 1621.68 247.384 1623.28 246.296 1625.15 245.594L1625.15 244.864C1623.28 244.162 1621.68 243.074 1620.33 241.602 1618.97 240.129 1618.3 238.245 1618.3 235.948 1618.3 234.76 1618.57 232.774 1619.11 229.991 1619.65 227.208 1619.92 224.871 1619.92 222.98 1619.92 218.278 1618.81 214.908 1616.6 212.868 1614.38 210.828 1611.32 209.808 1607.4 209.808L1606.79 209.808ZM1492.21 206.728 1493.26 206.728 1493.26 209.808 1492.66 209.808C1488.74 209.808 1485.67 210.828 1483.46 212.868 1481.24 214.908 1480.13 218.265 1480.13 222.939 1480.13 224.83 1480.4 227.167 1480.94 229.95 1481.48 232.733 1481.75 234.719 1481.75 235.908 1481.75 238.204 1481.08 240.089 1479.73 241.561 1478.38 243.034 1476.77 244.121 1474.91 244.824L1474.91 245.553C1476.77 246.256 1478.38 247.343 1479.73 248.816 1481.08 250.288 1481.75 252.173 1481.75 254.469 1481.75 255.658 1481.48 257.644 1480.94 260.427 1480.4 263.21 1480.13 265.547 1480.13 267.438 1480.13 272.355 1481.24 275.834 1483.46 277.874 1485.67 279.914 1488.74 280.934 1492.66 280.934L1493.26 280.934 1493.26 284.014 1492.21 284.014C1485.86 283.906 1481.11 282.453 1477.97 279.657 1474.82 276.861 1473.24 272.544 1473.24 266.709 1473.24 264.466 1473.56 261.913 1474.2 259.049 1474.83 256.185 1475.15 254.267 1475.15 253.294 1475.15 251.43 1474.51 249.91 1473.22 248.735 1471.94 247.559 1470 246.931 1467.41 246.85L1467.41 243.527C1470 243.446 1471.94 242.818 1473.22 241.642 1474.51 240.467 1475.15 238.947 1475.15 237.083 1475.15 236.11 1474.83 234.192 1474.2 231.328 1473.56 228.464 1473.24 225.911 1473.24 223.669 1473.24 218.076 1474.82 213.881 1477.97 211.085 1481.11 208.288 1485.86 206.836 1492.21 206.728Z" fill="#000000" fill-rule="evenodd" fill-opacity="1"/><text fill="#000000" fill-opacity="1" font-family="Cambria Math,Cambria Math_MSFontService,sans-serif" font-style="normal" font-variant="normal" font-weight="400" font-stretch="normal" font-size="83" text-anchor="start" direction="ltr" writing-mode="lr-tb" unicode-bidi="normal" text-decoration="none" transform="matrix(1 0 0 1 1495.5 269)">1</text><text fill="#000000" fill-opacity="1" font-family="Cambria Math,Cambria Math_MSFontService,sans-serif" font-style="normal" font-variant="normal" font-weight="400" font-stretch="normal" font-size="83" text-anchor="start" direction="ltr" writing-mode="lr-tb" unicode-bidi="normal" text-decoration="none" transform="matrix(1 0 0 1 1541.34 269)">,</text><text fill="#000000" fill-opacity="1" font-family="Cambria Math,Cambria Math_MSFontService,sans-serif" font-style="normal" font-variant="normal" font-weight="400" font-stretch="normal" font-size="83" text-anchor="start" direction="ltr" writing-mode="lr-tb" unicode-bidi="normal" text-decoration="none" transform="matrix(1 0 0 1 1558.52 269)">2</text><text fill="#000000" fill-opacity="1" font-family="Cambria Math,Cambria Math_MSFontService,sans-serif" font-style="normal" font-variant="normal" font-weight="400" font-stretch="normal" font-size="83" text-anchor="start" direction="ltr" writing-mode="lr-tb" unicode-bidi="normal" text-decoration="none" transform="matrix(1 0 0 1 1636.3 269)">)</text><path d="M2204.5 1159.04 2890.68 1159.04 2890.68 1181.96 2204.5 1181.96ZM2879.22 1136.13 2947.97 1170.5 2879.22 1204.88Z" fill="#008080" fill-rule="nonzero" fill-opacity="1"/><rect x="2148" y="341" width="872" height="871" stroke="#000000" stroke-width="13.75" stroke-linecap="butt" stroke-linejoin="round" stroke-miterlimit="10" stroke-opacity="1" fill="none"/><path d="M0 0 302.191 224.339" stroke="#000000" stroke-width="13.75" stroke-linecap="butt" stroke-linejoin="round" stroke-miterlimit="10" stroke-opacity="1" fill="none" fill-rule="evenodd" transform="matrix(1 0 0 -1 1846 565.339)"/><path d="M0 0 302.191 224.339" stroke="#000000" stroke-width="13.75" stroke-linecap="butt" stroke-linejoin="round" stroke-miterlimit="10" stroke-opacity="1" fill="none" fill-rule="evenodd" transform="matrix(1 0 0 -1 2718 565.339)"/><path d="M0 0 302.191 224.339" stroke="#000000" stroke-width="13.75" stroke-linecap="butt" stroke-linejoin="round" stroke-miterlimit="10" stroke-opacity="1" fill="none" fill-rule="evenodd" transform="matrix(1 0 0 -1 2718 1439.34)"/><path d="M0 0 302.191 224.339" stroke="#000000" stroke-width="13.75" stroke-linecap="butt" stroke-linejoin="round" stroke-miterlimit="10" stroke-opacity="1" fill="none" fill-rule="evenodd" transform="matrix(1 0 0 -1 1846 1436.34)"/><path d="M2125 345C2125 332.298 2135.3 322 2148 322 2160.7 322 2171 332.298 2171 345 2171 357.703 2160.7 368 2148 368 2135.3 368 2125 357.703 2125 345Z" fill="#000000" fill-rule="evenodd" fill-opacity="1"/><path d="M2997 345C2997 332.298 3007.3 322 3020 322 3032.7 322 3043 332.298 3043 345 3043 357.703 3032.7 368 3020 368 3007.3 368 2997 357.703 2997 345Z" fill="#000000" fill-rule="evenodd" fill-opacity="1"/><path d="M2125 1208C2125 1195.3 2135.3 1185 2148 1185 2160.7 1185 2171 1195.3 2171 1208 2171 1220.7 2160.7 1231 2148 1231 2135.3 1231 2125 1220.7 2125 1208Z" fill="#000000" fill-rule="evenodd" fill-opacity="1"/><path d="M2997 1208C2997 1195.3 3007.3 1185 3020 1185 3032.7 1185 3043 1195.3 3043 1208 3043 1220.7 3032.7 1231 3020 1231 3007.3 1231 2997 1220.7 2997 1208Z" fill="#000000" fill-rule="evenodd" fill-opacity="1"/><path d="M1823 569.5C1823 556.521 1833.3 546 1846 546 1858.7 546 1869 556.521 1869 569.5 1869 582.479 1858.7 593 1846 593 1833.3 593 1823 582.479 1823 569.5Z" fill="#000000" fill-rule="evenodd" fill-opacity="1"/><path d="M2695 569.5C2695 556.521 2705.3 546 2718 546 2730.7 546 2741 556.521 2741 569.5 2741 582.479 2730.7 593 2718 593 2705.3 593 2695 582.479 2695 569.5Z" fill="#000000" fill-rule="evenodd" fill-opacity="1"/><path d="M1823 1432C1823 1419.3 1833.3 1409 1846 1409 1858.7 1409 1869 1419.3 1869 1432 1869 1444.7 1858.7 1455 1846 1455 1833.3 1455 1823 1444.7 1823 1432Z" fill="#000000" fill-rule="evenodd" fill-opacity="1"/><path d="M2695 1432C2695 1419.3 2705.3 1409 2718 1409 2730.7 1409 2741 1419.3 2741 1432 2741 1444.7 2730.7 1455 2718 1455 2705.3 1455 2695 1444.7 2695 1432Z" fill="#000000" fill-rule="evenodd" fill-opacity="1"/><path d="M1952.5 509.042 2638.68 509.042 2638.68 531.959 1952.5 531.958ZM2627.22 486.125 2695.97 520.5 2627.22 554.875Z" fill="#008080" fill-rule="nonzero" fill-opacity="1"/><path d="M2221.5 285.042 2907.68 285.042 2907.68 307.959 2221.5 307.958ZM2896.22 262.125 2964.97 296.501 2896.22 330.875Z" fill="#008080" fill-rule="nonzero" fill-opacity="1"/><path d="M1935.5 1383.04 2621.68 1383.04 2621.68 1405.96 1935.5 1405.96ZM2610.22 1360.13 2678.97 1394.5 2610.22 1428.88Z" fill="#008080" fill-rule="nonzero" fill-opacity="1"/><rect x="1846" y="565" width="872" height="872" stroke="#000000" stroke-width="13.75" stroke-linecap="butt" stroke-linejoin="round" stroke-miterlimit="10" stroke-opacity="1" fill="#FFFFFF" fill-opacity="0"/></g></g></svg>