<svg width="2690" height="1036" xmlns="http://www.w3.org/2000/svg" xmlns:xlink="http://www.w3.org/1999/xlink" xml:space="preserve" overflow="hidden"><g transform="translate(-160 -641)"><g><path d="M252 1667C238.193 1667 227 1666.07 227 1664.92L227 806.083C227 804.933 238.193 804 252 804" stroke="#000000" stroke-width="13.75" stroke-linecap="butt" stroke-linejoin="round" stroke-miterlimit="10" stroke-opacity="1" fill="none" fill-rule="evenodd"/><path d="M622 804C635.807 804 647 804.933 647 806.083L647 1664.92C647 1666.07 635.807 1667 622 1667" stroke="#000000" stroke-width="13.75" stroke-linecap="butt" stroke-linejoin="round" stroke-miterlimit="10" stroke-opacity="1" fill="none" fill-rule="evenodd"/><path d="M1133 1667C1119.19 1667 1108 1666.07 1108 1664.92L1108 806.083C1108 804.933 1119.19 804 1133 804" stroke="#000000" stroke-width="13.75" stroke-linecap="butt" stroke-linejoin="round" stroke-miterlimit="10" stroke-opacity="1" fill="none" fill-rule="evenodd"/><path d="M1180 804C1193.81 804 1205 804.933 1205 806.083L1205 1664.92C1205 1666.07 1193.81 1667 1180 1667" stroke="#000000" stroke-width="13.75" stroke-linecap="butt" stroke-linejoin="round" stroke-miterlimit="10" stroke-opacity="1" fill="none" fill-rule="evenodd"/><text fill="#000000" fill-opacity="1" font-family="Cambria Math,Cambria Math_MSFontService,sans-serif" font-style="normal" font-variant="normal" font-weight="400" font-stretch="normal" font-size="103" text-anchor="start" direction="ltr" writing-mode="lr-tb" unicode-bidi="normal" text-decoration="none" transform="matrix(1 0 0 1 909.298 944)">≈</text><rect x="247" y="838" width="379" height="58.0001" fill="#76D6FF" fill-opacity="0.490196"/><rect x="249" y="1086" width="379" height="59.0001" fill="#FFD579" fill-opacity="0.490196"/><rect x="249" y="1306" width="379" height="58.0001" fill="#FF9300" fill-opacity="1"/><rect x="248" y="1413" width="379" height="58.9998" fill="#008F00" fill-opacity="0.490196"/><rect x="1119" y="838" width="72.0002" height="55" fill="#76D6FF" fill-opacity="0.490196"/><rect x="1122" y="1086" width="71.9999" height="55" fill="#FFD579" fill-opacity="0.490196"/><rect x="1122" y="1306" width="71.9999" height="55" fill="#FF9300" fill-opacity="1"/><rect x="1121" y="1413" width="72.0002" height="55" fill="#008F00" fill-opacity="0.490196"/><path d="M1820 1231C1812.82 1231 1807 1230.52 1807 1229.92L1807 805.083C1807 804.485 1812.82 804 1820 804" stroke="#000000" stroke-width="13.75" stroke-linecap="butt" stroke-linejoin="round" stroke-miterlimit="10" stroke-opacity="1" fill="none" fill-rule="evenodd"/><path d="M2208 804C2215.18 804 2221 804.485 2221 805.083L2221 1229.92C2221 1230.52 2215.18 1231 2208 1231" stroke="#000000" stroke-width="13.75" stroke-linecap="butt" stroke-linejoin="round" stroke-miterlimit="10" stroke-opacity="1" fill="none" fill-rule="evenodd"/><path d="M2702 1231C2694.82 1231 2689 1230.52 2689 1229.92L2689 805.083C2689 804.485 2694.82 804 2702 804" stroke="#000000" stroke-width="13.75" stroke-linecap="butt" stroke-linejoin="round" stroke-miterlimit="10" stroke-opacity="1" fill="none" fill-rule="evenodd"/><path d="M2761 804C2768.18 804 2774 804.485 2774 805.083L2774 1229.92C2774 1230.52 2768.18 1231 2761 1231" stroke="#000000" stroke-width="13.75" stroke-linecap="butt" stroke-linejoin="round" stroke-miterlimit="10" stroke-opacity="1" fill="none" fill-rule="evenodd"/><path d="M2307 1209C2297.61 1209 2290 1208.37 2290 1207.58L2290 805.417C2290 804.634 2297.61 804 2307 804" stroke="#000000" stroke-width="13.75" stroke-linecap="butt" stroke-linejoin="round" stroke-miterlimit="10" stroke-opacity="1" fill="none" fill-rule="evenodd"/><text fill="#000000" fill-opacity="1" font-family="Cambria Math,Cambria Math_MSFontService,sans-serif" font-style="normal" font-variant="normal" font-weight="400" font-stretch="normal" font-size="103" text-anchor="start" direction="ltr" writing-mode="lr-tb" unicode-bidi="normal" text-decoration="none" transform="matrix(1 0 0 1 2477.14 946)">≈</text><rect x="1824" y="831" width="380" height="59.0001" fill="#76D6FF" fill-opacity="1"/><rect x="1824" y="905" width="380" height="58.9998" fill="#FFD579" fill-opacity="1"/><rect x="1824" y="983" width="382" height="62.9999" fill="#FF9300" fill-opacity="1"/><rect x="1825" y="1066" width="381" height="58.0001" fill="#008F00" fill-opacity="1"/><rect x="249" y="1588" width="379" height="58.9998" fill="#9F5900" fill-opacity="0.490196"/><rect x="1119" y="1592" width="72.0002" height="55" fill="#9F5900" fill-opacity="0.490196"/><rect x="1824" y="1143" width="381" height="59.0001" fill="#9F5900" fill-opacity="1"/><rect x="2701" y="831" width="60.0002" height="59.0001" fill="#76D6FF" fill-opacity="1"/><rect x="2701" y="905" width="60.0002" height="58.9998" fill="#FFD579" fill-opacity="1"/><rect x="2701" y="983" width="60.0002" height="62.9999" fill="#FF9300" fill-opacity="1"/><rect x="2701" y="1066" width="60.0002" height="58.0001" fill="#008F00" fill-opacity="1"/><rect x="2701" y="1143" width="60.0002" height="59.0001" fill="#9F5900" fill-opacity="1"/><path d="M2339 804C2351.7 804 2362 804.858 2362 805.917L2362 1207.08C2362 1208.14 2351.7 1209 2339 1209" stroke="#000000" stroke-width="13.75" stroke-linecap="butt" stroke-linejoin="round" stroke-miterlimit="10" stroke-opacity="1" fill="none" fill-rule="evenodd"/><path d="M731 1209C721.611 1209 714 1208.37 714 1207.58L714 805.417C714 804.634 721.611 804 731 804" stroke="#000000" stroke-width="13.75" stroke-linecap="butt" stroke-linejoin="round" stroke-miterlimit="10" stroke-opacity="1" fill="none" fill-rule="evenodd"/><path d="M763 804C775.703 804 786 804.858 786 805.917L786 1207.08C786 1208.14 775.703 1209 763 1209" stroke="#000000" stroke-width="13.75" stroke-linecap="butt" stroke-linejoin="round" stroke-miterlimit="10" stroke-opacity="1" fill="none" fill-rule="evenodd"/><path d="M1359.5 982.25 1588 982.25 1588 949.5 1653.5 1015 1588 1080.5 1588 1047.75 1359.5 1047.75Z" stroke="#000000" stroke-width="9.16667" stroke-linecap="butt" stroke-linejoin="miter" stroke-miterlimit="8" stroke-opacity="1" fill="none" fill-rule="evenodd"/><text fill="#000000" fill-opacity="1" font-family="Cambria Math,Cambria Math_MSFontService,sans-serif" font-style="normal" font-variant="normal" font-weight="400" font-stretch="normal" font-size="103" text-anchor="start" direction="ltr" writing-mode="lr-tb" unicode-bidi="normal" text-decoration="none" transform="matrix(1 0 0 1 391.751 758)"> </text><text fill="#000000" fill-opacity="1" font-family="Cambria Math,Cambria Math_MSFontService,sans-serif" font-style="normal" font-variant="normal" font-weight="400" font-stretch="normal" font-size="103" text-anchor="start" direction="ltr" writing-mode="lr-tb" unicode-bidi="normal" text-decoration="none" transform="matrix(1 0 0 1 414.668 758)">𝑨</text><text fill="#000000" fill-opacity="1" font-family="Cambria Math,Cambria Math_MSFontService,sans-serif" font-style="normal" font-variant="normal" font-weight="400" font-stretch="normal" font-size="103" text-anchor="start" direction="ltr" writing-mode="lr-tb" unicode-bidi="normal" text-decoration="none" transform="matrix(1 0 0 1 1115.04 758)"> </text><text fill="#000000" fill-opacity="1" font-family="Cambria Math,Cambria Math_MSFontService,sans-serif" font-style="normal" font-variant="normal" font-weight="400" font-stretch="normal" font-size="103" text-anchor="start" direction="ltr" writing-mode="lr-tb" unicode-bidi="normal" text-decoration="none" transform="matrix(1 0 0 1 1137.96 758)">𝒃</text><text fill="#000000" fill-opacity="1" font-family="Cambria Math,Cambria Math_MSFontService,sans-serif" font-style="normal" font-variant="normal" font-weight="400" font-stretch="normal" font-size="103" text-anchor="start" direction="ltr" writing-mode="lr-tb" unicode-bidi="normal" text-decoration="none" transform="matrix(1 0 0 1 706.458 759)"> </text><text fill="#000000" fill-opacity="1" font-family="Cambria Math,Cambria Math_MSFontService,sans-serif" font-style="normal" font-variant="normal" font-weight="400" font-stretch="normal" font-size="103" text-anchor="start" direction="ltr" writing-mode="lr-tb" unicode-bidi="normal" text-decoration="none" transform="matrix(1 0 0 1 729.375 759)">𝜷</text><text fill="#000000" fill-opacity="1" font-family="Cambria Math,Cambria Math_MSFontService,sans-serif" font-style="normal" font-variant="normal" font-weight="400" font-stretch="normal" font-size="103" text-anchor="start" direction="ltr" writing-mode="lr-tb" unicode-bidi="normal" text-decoration="none" transform="matrix(1 0 0 1 1937.2 759)"> </text><text fill="#000000" fill-opacity="1" font-family="Cambria Math,Cambria Math_MSFontService,sans-serif" font-style="normal" font-variant="normal" font-weight="400" font-stretch="normal" font-size="103" text-anchor="start" direction="ltr" writing-mode="lr-tb" unicode-bidi="normal" text-decoration="none" transform="matrix(1 0 0 1 1960.11 759)">𝚷𝐀</text><text fill="#000000" fill-opacity="1" font-family="Cambria Math,Cambria Math_MSFontService,sans-serif" font-style="normal" font-variant="normal" font-weight="400" font-stretch="normal" font-size="103" text-anchor="start" direction="ltr" writing-mode="lr-tb" unicode-bidi="normal" text-decoration="none" transform="matrix(1 0 0 1 2674.25 760)">𝚷𝐛</text><text fill="#000000" fill-opacity="1" font-family="Cambria Math,Cambria Math_MSFontService,sans-serif" font-style="normal" font-variant="normal" font-weight="400" font-stretch="normal" font-size="103" text-anchor="start" direction="ltr" writing-mode="lr-tb" unicode-bidi="normal" text-decoration="none" transform="matrix(1 0 0 1 2274.18 758)"> </text><text fill="#000000" fill-opacity="1" font-family="Cambria Math,Cambria Math_MSFontService,sans-serif" font-style="normal" font-variant="normal" font-weight="400" font-stretch="normal" font-size="103" text-anchor="start" direction="ltr" writing-mode="lr-tb" unicode-bidi="normal" text-decoration="none" transform="matrix(1 0 0 1 2297.1 758)">𝜷</text></g></g></svg>