<svg width="2250" height="834" xmlns="http://www.w3.org/2000/svg" xmlns:xlink="http://www.w3.org/1999/xlink" xml:space="preserve" overflow="hidden"><g transform="translate(-348 -458)"><g><path d="M1080 1233 470 1233 470 623 487.949 623 487.949 1215.06 1080 1215.06 1080 1233Z" fill="#000000" fill-rule="evenodd" fill-opacity="1"/><path d="M692.5 1152C677.864 1152 666 1140.14 666 1125.5 666 1110.86 677.864 1099 692.5 1099 707.136 1099 719 1110.86 719 1125.5 719 1140.14 707.136 1152 692.5 1152Z" stroke="#FF9300" stroke-width="11.9596" stroke-linecap="butt" stroke-linejoin="miter" stroke-miterlimit="8" stroke-opacity="1" fill="#000000" fill-rule="evenodd" fill-opacity="1"/><path d="M665.5 1015C650.864 1015 639 1002.91 639 988 639 973.088 650.864 961 665.5 961 680.136 961 692 973.088 692 988 692 1002.91 680.136 1015 665.5 1015Z" fill="#000000" fill-rule="evenodd" fill-opacity="1"/><path d="M748 1097C733.088 1097 721 1084.91 721 1070 721 1055.09 733.088 1043 748 1043 762.912 1043 775 1055.09 775 1070 775 1084.91 762.912 1097 748 1097Z" fill="#000000" fill-rule="evenodd" fill-opacity="1"/><path d="M828.5 1036C813.864 1036 802 1023.91 802 1009 802 994.088 813.864 982 828.5 982 843.136 982 855 994.088 855 1009 855 1023.91 843.136 1036 828.5 1036Z" fill="#000000" fill-rule="evenodd" fill-opacity="1"/><path d="M1080 677C1065.09 677 1053 664.912 1053 650 1053 635.088 1065.09 623 1080 623 1094.91 623 1107 635.088 1107 650 1107 664.912 1094.91 677 1080 677Z" fill="#0070C0" fill-rule="evenodd" fill-opacity="1"/><path d="M838 1118C823.088 1118 811 1105.91 811 1091 811 1076.09 823.088 1064 838 1064 852.912 1064 865 1076.09 865 1091 865 1105.91 852.912 1118 838 1118Z" stroke="#FF9300" stroke-width="11.9596" stroke-linecap="butt" stroke-linejoin="miter" stroke-miterlimit="8" stroke-opacity="1" fill="#000000" fill-rule="evenodd" fill-opacity="1"/><path d="M0 0 865.704 701.027" stroke="#00B050" stroke-width="13.75" stroke-linecap="butt" stroke-linejoin="round" stroke-miterlimit="10" stroke-opacity="0.670588" fill="none" fill-rule="evenodd" transform="matrix(1 0 0 -1 1725 1275.03)"/><path d="M2388 1233 1778 1233 1778 623 1795.95 623 1795.95 1215.06 2388 1215.06 2388 1233Z" fill="#000000" fill-rule="evenodd" fill-opacity="1"/><path d="M1913 1126C1898.09 1126 1886 1113.91 1886 1099 1886 1084.09 1898.09 1072 1913 1072 1927.91 1072 1940 1084.09 1940 1099 1940 1113.91 1927.91 1126 1913 1126Z" stroke="#FF9300" stroke-width="11.9596" stroke-linecap="butt" stroke-linejoin="miter" stroke-miterlimit="8" stroke-opacity="1" fill="#000000" fill-rule="evenodd" fill-opacity="1"/><path d="M2001 1152C1986.09 1152 1974 1140.14 1974 1125.5 1974 1110.86 1986.09 1099 2001 1099 2015.91 1099 2028 1110.86 2028 1125.5 2028 1140.14 2015.91 1152 2001 1152Z" fill="#000000" fill-rule="evenodd" fill-opacity="1"/><path d="M1974 1015C1959.09 1015 1947 1002.91 1947 988 1947 973.088 1959.09 961 1974 961 1988.91 961 2001 973.088 2001 988 2001 1002.91 1988.91 1015 1974 1015Z" stroke="#FFAB40" stroke-width="11.9596" stroke-linecap="butt" stroke-linejoin="miter" stroke-miterlimit="8" stroke-opacity="1" fill="#000000" fill-rule="evenodd" fill-opacity="1"/><path d="M2056 1097C2041.09 1097 2029 1084.91 2029 1070 2029 1055.09 2041.09 1043 2056 1043 2070.91 1043 2083 1055.09 2083 1070 2083 1084.91 2070.91 1097 2056 1097Z" fill="#000000" fill-rule="evenodd" fill-opacity="1"/><path d="M2137 1036C2122.09 1036 2110 1023.91 2110 1009 2110 994.088 2122.09 982 2137 982 2151.91 982 2164 994.088 2164 1009 2164 1023.91 2151.91 1036 2137 1036Z" fill="#000000" fill-rule="evenodd" fill-opacity="1"/><path d="M2388 677C2373.09 677 2361 664.912 2361 650 2361 635.088 2373.09 623 2388 623 2402.91 623 2415 635.088 2415 650 2415 664.912 2402.91 677 2388 677Z" stroke="#FF9300" stroke-width="11.9596" stroke-linecap="butt" stroke-linejoin="miter" stroke-miterlimit="8" stroke-opacity="1" fill="#0070C0" fill-rule="evenodd" fill-opacity="1"/><path d="M2146 1118C2131.09 1118 2119 1105.91 2119 1091 2119 1076.09 2131.09 1064 2146 1064 2160.91 1064 2173 1076.09 2173 1091 2173 1105.91 2160.91 1118 2146 1118Z" fill="#000000" fill-rule="evenodd" fill-opacity="1"/><path d="M0 0 712.123 813.877" stroke="#FFAB40" stroke-width="13.75" stroke-linecap="square" stroke-linejoin="round" stroke-miterlimit="10" stroke-dasharray="41.25 13.75" stroke-opacity="1" fill="none" fill-rule="evenodd" transform="matrix(1 0 0 -1 1771 1281.88)"/><path d="M0 0 865.704 701.027" stroke="#00B050" stroke-width="13.75" stroke-linecap="butt" stroke-linejoin="round" stroke-miterlimit="10" stroke-opacity="0.670588" fill="none" fill-rule="evenodd" transform="matrix(1 0 0 -1 396 1283.03)"/><path d="M0 0 938.764 40.0251" stroke="#FFAB40" stroke-width="13.75" stroke-linecap="square" stroke-linejoin="round" stroke-miterlimit="10" stroke-dasharray="41.25 13.75" stroke-opacity="1" fill="none" fill-rule="evenodd" transform="matrix(1 0 0 -1 350 1137.03)"/><path d="M604.5 1126C589.864 1126 578 1113.91 578 1099 578 1084.09 589.864 1072 604.5 1072 619.136 1072 631 1084.09 631 1099 631 1113.91 619.136 1126 604.5 1126Z" stroke="#FF9300" stroke-width="11.9596" stroke-linecap="butt" stroke-linejoin="miter" stroke-miterlimit="8" stroke-opacity="1" fill="#000000" fill-rule="evenodd" fill-opacity="1"/><text fill="#000000" fill-opacity="1" font-family="Calibri,Calibri_MSFontService,sans-serif" font-style="normal" font-variant="normal" font-weight="400" font-stretch="normal" font-size="101" text-anchor="start" direction="ltr" writing-mode="lr-tb" unicode-bidi="normal" text-decoration="none" transform="matrix(1 0 0 1 1398.37 943)">vs.</text></g></g></svg>